<svg width="105" height="105" viewBox="0 0 105 105" fill="none" xmlns="http://www.w3.org/2000/svg">
<path d="M52.4562 8.75C28.3062 8.75 8.75 28.35 8.75 52.5C8.75 76.65 28.3062 96.25 52.4562 96.25C76.65 96.25 96.25 76.65 96.25 52.5C96.25 28.35 76.65 8.75 52.4562 8.75ZM52.5 87.5C33.1625 87.5 17.5 71.8375 17.5 52.5C17.5 33.1625 33.1625 17.5 52.5 17.5C71.8375 17.5 87.5 33.1625 87.5 52.5C87.5 71.8375 71.8375 87.5 52.5 87.5Z" fill="#77C4D6"/>
<path d="M54.6875 30.625H48.125V56.875L71.0938 70.6562L74.375 65.275L54.6875 53.5938V30.625Z" fill="#77C4D6"/>
</svg>
