<svg width="191" height="39" viewBox="0 0 191 39" fill="none" xmlns="http://www.w3.org/2000/svg">
<path fill-rule="evenodd" clip-rule="evenodd" d="M8.56773 0.876C6.10323 2.119 5.02624 4.302 4.69124 8.7355L4.40624 12.5H2.45473H0.503235L0.651735 15.625L0.800735 18.75L2.66473 18.9045L4.52874 19.059L4.66473 28.4045L4.80073 37.75L8.67573 37.896L12.5507 38.042V28.521V19H15.2352H17.9197L18.2297 17.125C18.4002 16.094 18.5422 14.6425 18.5452 13.9C18.5507 12.6065 18.4302 12.5435 15.6757 12.4L12.8007 12.25L12.6467 10.396C12.3967 7.3835 13.1727 6.5 16.0682 6.5H18.5507V3.25V0L14.4257 0.0010004C11.4937 0.0015004 9.79923 0.2545 8.56773 0.876ZM93.5507 1.1875L90.3007 1.7525L90.1692 19.2195C90.0922 29.4615 90.2292 36.8785 90.5007 37.15C91.2657 37.915 103.648 38.22 106.348 37.5405C112.094 36.0935 113.246 33.873 113.243 24.25C113.241 15.9765 112.733 14.488 109.393 12.9715C107.106 11.9335 102.384 11.6875 99.6722 12.465L98.0507 12.93V6.715C98.0507 2.044 97.8957 0.515 97.4257 0.561C97.0822 0.5945 95.3382 0.8765 93.5507 1.1875ZM171.301 1.061C169.926 1.3085 168.295 1.625 167.676 1.765L166.551 2.019V20.0095V38H170.535H174.519L174.66 32.1625L174.801 26.3245L178.312 32.0375L181.823 37.75L185.998 37.896C190.937 38.069 190.919 38.6855 186.21 30.801C184.387 27.748 182.823 25.1115 182.735 24.9425C182.647 24.773 184.257 22.015 186.313 18.813C188.369 15.6115 190.051 12.881 190.051 12.746C190.051 12.6105 188.172 12.5 185.877 12.5H181.702L178.252 17.875L174.801 23.25L174.666 11.875C174.592 5.6185 174.367 0.525 174.166 0.556C173.965 0.5865 172.676 0.814 171.301 1.061ZM49.3297 12.7115C44.3007 14.5915 42.8842 16.9255 42.6317 23.749C42.4187 29.497 43.0077 32.278 44.9182 34.5485C47.0827 37.121 49.6097 37.9855 54.8007 37.93C57.2757 37.9035 59.9757 37.738 60.8007 37.5625C62.2502 37.2545 62.3057 37.14 62.4492 34.1415L62.5972 31.039L57.5722 31.345C50.7867 31.7585 50.5507 31.551 50.5507 25.1725C50.5507 21.1665 50.6932 20.3575 51.5507 19.5C52.6427 18.408 55.6972 18.2135 60.1757 18.9505L62.5507 19.3415V16.224C62.5507 12.4685 62.5932 12.495 56.0507 12.1935C52.6332 12.036 50.7477 12.181 49.3297 12.7115ZM70.8782 12.7C66.2182 14.433 65.0507 16.873 65.0507 24.878C65.0507 32.5 65.9167 34.549 70.0152 36.625C72.5002 37.8835 73.1777 37.995 78.0152 37.941C80.9222 37.9085 83.9757 37.738 84.8007 37.5625C86.2492 37.255 86.3057 37.1375 86.4487 34.162L86.5962 31.08L80.9207 31.3595C74.3532 31.683 73.0507 31.292 73.0507 28.996V27.5275L80.1757 27.3885L87.3007 27.25L87.2912 23C87.2792 17.658 86.2232 15.311 83.0292 13.53C80.3017 12.0085 73.9107 11.572 70.8782 12.7ZM121.921 12.685C116.738 14.6165 115.326 17.679 115.624 26.344C115.855 33.0385 116.799 34.9625 120.753 36.804C125.238 38.8925 132.398 38.326 135.603 35.629C137.673 33.8875 138.423 31.981 138.817 27.459C139.47 19.9525 137.75 15.166 133.704 13.23C131.202 12.0335 124.502 11.7235 121.921 12.685ZM147.369 12.703C142.461 14.528 140.861 17.9575 141.123 26.091C141.282 31.005 141.464 32.0045 142.506 33.6835C144.219 36.447 147.727 37.9895 152.301 37.9925C156.742 37.995 159.149 37.3225 161.226 35.4985C163.655 33.366 164.164 31.2225 163.969 23.946C163.81 18.027 163.724 17.5675 162.454 15.9045C161.713 14.9345 160.251 13.731 159.204 13.23C156.676 12.021 150.003 11.7235 147.369 12.703ZM21.0437 14.625C21.0402 15.7935 20.9012 17.2565 20.7357 17.875C20.4377 18.987 20.4922 19 25.4567 19C31.0567 19 32.0507 19.4575 32.0507 22.0355V23.5H27.7847C20.9622 23.5 18.5442 25.055 18.1602 29.689C17.8877 32.9695 19.0377 35.7015 21.2607 37.057C23.1662 38.219 27.5462 38.31 30.5507 37.25C31.7197 36.8375 32.7607 36.5 32.8637 36.5C32.9667 36.5 33.0507 36.8375 33.0507 37.25C33.0507 37.846 33.7777 38 36.5952 38H40.1397L39.9642 27.875C39.7617 16.1885 39.4507 15.087 35.8927 13.4715C34.1932 12.7 32.6042 12.52 27.4257 12.511L21.0507 12.5L21.0437 14.625ZM78.7722 19.1115C80.3792 21.405 79.8702 22 76.3007 22C73.0747 22 73.0507 21.9895 73.0507 20.6C73.0507 18.71 73.8892 18 76.1222 18C77.4897 18 78.2037 18.2995 78.7722 19.1115ZM104.265 19.2855C104.87 19.891 105.051 21.1745 105.051 24.8715C105.051 30.834 104.616 31.5 100.723 31.5H98.0507V25.5765C98.0507 19.9275 98.1027 19.6275 99.1757 19.11C100.845 18.305 103.372 18.3925 104.265 19.2855ZM129.439 19.2785C130.46 19.9935 130.551 20.459 130.551 24.9925C130.551 30.696 130.118 31.5 127.043 31.5C124.184 31.5 123.551 30.302 123.551 24.8885C123.551 21.1665 123.703 20.348 124.551 19.5C125.747 18.3035 127.908 18.206 129.439 19.2785ZM155.12 19.457C156.214 20.343 156.301 20.771 156.301 25.2475C156.301 30.7155 155.839 31.5 152.62 31.5C149.608 31.5 149.051 30.5125 149.051 25.1725C149.051 21.1665 149.193 20.3575 150.051 19.5C151.315 18.236 153.59 18.2165 155.12 19.457ZM31.9572 30.125C31.8202 31.548 31.5627 31.809 29.8867 32.2225C27.7767 32.744 26.4157 32.227 26.1342 30.7975C25.8367 29.284 27.0342 28.5 29.6437 28.5H32.1142L31.9572 30.125Z" fill="#333333"/>
</svg>
