<svg width="25" height="26" viewBox="0 0 25 26" fill="none" xmlns="http://www.w3.org/2000/svg">
<g clip-path="url(#clip0)">
<path d="M24.9921 13.0909C24.9921 6.32935 19.5013 0.848083 12.728 0.848083C5.95471 0.848083 0.463882 6.32935 0.463882 13.0909C0.463882 19.2016 4.9487 24.2664 10.8117 25.1849V16.6298H7.6978V13.0909H10.8117V10.3936C10.8117 7.32527 12.6427 5.63041 15.444 5.63041C16.7858 5.63041 18.1894 5.86952 18.1894 5.86952V8.88239H16.6429C15.1194 8.88239 14.6442 9.82612 14.6442 10.7943V13.0909H18.0457L17.5019 16.6298H14.6442V25.1849C20.5074 24.2664 24.9921 19.2016 24.9921 13.0909Z" fill="#3B5998"/>
</g>
<defs>
<clipPath id="clip0">
<rect width="24.5301" height="24.4874" fill="white" transform="translate(0.463882 0.848083)"/>
</clipPath>
</defs>
</svg>
