<svg width="150" height="50" viewBox="0 0 150 50" fill="none" xmlns="http://www.w3.org/2000/svg">
<path fill-rule="evenodd" clip-rule="evenodd" d="M15.4318 0.396036C11.3608 1.31654 8.19528 3.10754 5.38328 6.08054C-0.805216 12.624 -1.74522 21.862 3.01578 29.3435C5.02628 32.5035 7.46478 34.5625 11.4083 36.431C14.3658 37.833 15.1403 37.981 19.4318 37.9685C23.5548 37.956 24.5448 37.777 26.9318 36.6105C30.9583 34.643 33.0433 32.6995 34.9413 29.145C36.4028 26.409 36.6588 25.3925 36.8423 21.6075L37.0543 17.2325H28.2428H19.4318V19.9825V22.7325H25.4318C31.1373 22.7325 31.4318 22.7825 31.4318 23.7525C31.4318 25.309 29.6518 28.4585 27.9733 29.8705C24.4343 32.849 17.6408 33.6255 13.3423 31.543C7.30428 28.6185 4.24378 21.5745 6.15528 15.0005C7.34078 10.922 11.1228 7.14104 15.2038 5.95454C19.0943 4.82354 22.6968 5.22204 26.1388 7.16504L28.7958 8.66403L30.6713 6.74354L32.5468 4.82254L30.5548 3.50453C26.0073 0.495035 20.2383 -0.690464 15.4318 0.396036ZM119.432 19.2325V37.2325H122.182H124.932V19.2325V1.23254H122.182H119.432V19.2325ZM48.6818 13.702C42.3918 15.397 38.9213 19.723 38.9428 25.841C38.9568 29.86 40.1173 32.4305 43.1048 35.0605C45.8463 37.4735 48.9678 38.486 52.4093 38.0785C64.3498 36.664 67.5623 20.7925 57.0588 15.107C54.4053 13.6705 50.9493 13.091 48.6818 13.702ZM76.1818 13.5625C71.7998 14.593 68.6423 16.88 66.9088 20.2775C63.9398 26.0975 66.0698 33.214 71.7858 36.574C73.8383 37.7805 74.7198 37.9825 77.9318 37.9825C81.1298 37.9825 82.0288 37.7785 84.0408 36.596C91.2208 32.375 92.3608 22.644 86.3508 16.883C83.8153 14.4525 79.0343 12.8915 76.1818 13.5625ZM101.291 13.935C98.3543 15.0075 96.2173 16.6885 94.3953 19.3585C90.4683 25.1135 92.7393 33.5235 99.1198 36.852C101.973 38.341 106.07 38.3395 108.596 36.849C109.637 36.235 110.589 35.7325 110.71 35.7325C111.2 35.7325 110.889 38.8645 110.251 40.3735C109.18 42.904 107.739 43.875 104.677 44.1285C102.013 44.3495 101.881 44.299 99.8623 42.2805L97.7868 40.205L95.6093 41.037C94.4118 41.494 93.4318 41.9705 93.4318 42.0955C93.4318 42.759 96.3683 46.262 97.6743 47.157C101.625 49.864 108.334 49.6045 111.741 46.613C112.703 45.7685 113.984 44.156 114.586 43.03C115.622 41.0935 115.69 40.256 115.837 27.6075L115.991 14.2325H113.462C111.296 14.2325 110.932 14.3715 110.932 15.1975C110.932 16.117 110.833 16.107 108.807 14.985C105.988 13.4235 103.602 13.09 101.291 13.935ZM133.428 15.3575C124.833 20.511 125.689 33.203 134.895 37.117C139.01 38.8665 145.057 37.595 148.111 34.338C149.742 32.5995 149.674 32.3335 147.274 31.0565C145.554 30.141 145.522 30.1425 144.463 31.2015C142.043 33.621 137.876 33.9625 135.47 31.938C134.624 31.226 133.932 30.369 133.932 30.033C133.932 29.6975 136.801 28.222 140.307 26.7545C143.813 25.287 147.415 23.7775 148.312 23.4005L149.943 22.7145L148.882 20.5985C145.567 13.9845 139.276 11.851 133.428 15.3575ZM54.8308 19.5585C58.9918 22.196 58.9123 29.618 54.6948 32.2245C49.3803 35.509 42.7923 30.3205 44.4518 24.158C45.7863 19.2015 50.7773 16.99 54.8308 19.5585ZM80.7348 19.187C82.2618 19.8805 83.0623 20.686 83.8598 22.3335C85.5853 25.898 85.0148 29.141 82.2058 31.7325C81.0833 32.7685 80.3513 32.9825 77.9318 32.9825C75.5123 32.9825 74.7803 32.7685 73.6578 31.7325C72.0163 30.218 70.9318 27.8145 70.9318 25.6915C70.9318 23.214 72.8838 20.2175 75.1818 19.168C77.6763 18.0285 78.1883 18.0305 80.7348 19.187ZM108.38 19.6955C110.396 21.1315 111.601 24.3635 111.176 27.1985C110.683 30.4845 107.844 33.2325 104.943 33.2325C100.635 33.2325 97.6163 29.69 98.0528 25.147C98.6003 19.4485 104.017 16.589 108.38 19.6955ZM142.494 19.5385C143.01 20.0055 143.432 20.532 143.432 20.7085C143.432 21.122 132.963 25.4305 132.67 25.1375C132.269 24.7365 133.384 21.614 134.292 20.5955C136.395 18.234 140.472 17.7085 142.494 19.5385Z" fill="#333333"/>
</svg>
