<svg width="220" height="47" viewBox="0 0 220 47" fill="none" xmlns="http://www.w3.org/2000/svg">
<path fill-rule="evenodd" clip-rule="evenodd" d="M0.942749 11.2066V22.4131H11.9427H22.9427V11.2066V0H11.9427H0.942749V11.2066ZM25.4427 11.2066V22.4131H36.4427H47.4427V11.2066V0H36.4427H25.4427V11.2066ZM201.474 8.38101C199.265 9.56094 197.943 12.0622 197.943 15.0586V17.4324H196.163C194.411 17.4324 194.385 17.4628 194.538 19.3002C194.679 21.0056 194.834 21.1814 196.318 21.3238L197.943 21.4802V29.4175V37.3552H200.443H202.943V29.3861V21.417H206.443H209.943V27.6678C209.943 34.5431 210.426 36.2355 212.679 37.2581C214.291 37.9902 217.178 38.0296 218.476 37.3378C219.141 36.9831 219.443 36.2933 219.443 35.1278C219.443 33.4997 219.379 33.4424 217.818 33.669C214.987 34.0799 214.711 33.538 214.525 27.1926L214.358 21.4748L216.775 21.3214C219.176 21.1689 219.194 21.155 219.348 19.3002L219.503 17.4324H216.973H214.443V14.3907C214.443 11.6977 214.343 11.3879 213.568 11.6862C213.087 11.8715 212.074 12.1479 211.318 12.2998C210.044 12.5558 209.943 12.7546 209.943 15.0043V17.4324H206.443H202.943V15.0417C202.943 12.1559 203.548 11.4556 206.043 11.4556C207.926 11.4556 207.943 11.4382 207.943 9.46332V7.47104H205.56C204.207 7.47104 202.441 7.86452 201.474 8.38101ZM96.8177 9.50317C95.4408 10.3021 95.6893 12.7615 97.2503 13.7801C98.4218 14.5446 98.6953 14.5571 99.8753 13.9006C101.445 13.027 101.854 10.9406 100.684 9.77511C99.7678 8.86215 98.1222 8.7466 96.8177 9.50317ZM61.4427 23.4093V37.3552H63.6827H65.9228L66.0577 26.8066L66.1927 16.258L70.4723 26.6821C74.7193 37.0285 74.7633 37.1072 76.3587 37.2631C78.2063 37.4434 77.5022 38.7314 83.2537 24.6544L86.9167 15.6892L86.9297 26.5496L86.9427 37.41L89.3177 37.2581L91.6927 37.1062V23.4093V9.71235L88.3177 9.56493C86.4613 9.48424 84.9417 9.48424 84.9408 9.56493C84.9398 9.64611 83.0587 14.3394 80.7607 19.995L76.5827 30.2771L72.4812 19.8705L68.3797 9.46332H64.9112H61.4427V23.4093ZM110.172 17.8707C108.026 18.8415 105.672 21.2765 104.843 23.3814C104.567 24.0817 104.327 25.9992 104.308 27.6429C104.272 30.8265 105.416 33.7865 107.356 35.5348C109.756 37.6964 114.999 38.4679 118.209 37.1316C119.783 36.4766 119.943 36.2236 119.943 34.3922C119.943 32.1778 119.781 32.0747 117.943 33.1216C117.255 33.5131 115.95 33.8413 115.043 33.8513C110.216 33.9026 107.686 28.7919 110.016 23.6961C111.176 21.162 115.473 20.136 118.468 21.679L119.943 22.4385V20.1723C119.943 18.1975 119.778 17.8433 118.66 17.42C116.624 16.649 112.373 16.8746 110.172 17.8707ZM131.086 17.4299C130.478 17.68 129.692 18.3434 129.341 18.9037C128.481 20.2749 127.943 20.1877 127.943 18.6776C127.943 17.534 127.759 17.4324 125.693 17.4324H123.443V27.3938V37.3552H125.693H127.943L127.955 32.25C127.975 23.6125 129.153 21.1421 133.073 21.5146L134.989 21.6969L134.841 19.4401C134.709 17.4374 134.552 17.1714 133.443 17.0793C132.755 17.0225 131.695 17.1799 131.086 17.4299ZM141.539 17.6068C137.398 19.1015 135.136 23.3301 135.535 28.8293C135.958 34.6502 139.378 37.6042 145.693 37.6042C149.901 37.6042 151.951 36.5961 154.186 33.4284C155.566 31.472 155.693 30.948 155.693 27.1901C155.693 23.5248 155.543 22.8614 154.285 20.9677C153.399 19.6344 152.101 18.4978 150.785 17.9021C148.401 16.8243 144.089 16.6863 141.539 17.6068ZM161.569 17.8394C159.287 19.0517 158.276 20.7112 158.276 23.2424C158.276 25.9076 159.468 27.3156 163.222 29.0863C166.172 30.4774 167.129 31.6687 166.376 33.0101C165.762 34.1018 162.605 34.1581 160.116 33.1216C159.128 32.7107 158.236 32.3745 158.132 32.3745C158.028 32.3745 157.943 33.2631 157.943 34.3494C157.943 36.6793 158.722 37.2581 162.454 37.6984C167.443 38.2871 171.443 35.5263 171.443 31.4929C171.443 28.8855 170.164 27.3525 166.583 25.665C162.586 23.7813 161.95 22.586 164.172 21.1361C165.278 20.4134 165.652 20.4069 167.922 21.0698L170.443 21.806V19.6812C170.443 17.7004 170.337 17.536 168.88 17.2457C166.177 16.7072 163.252 16.9443 161.569 17.8394ZM179.135 17.8872C173.037 20.646 171.542 30.578 176.527 35.2145C181.54 39.8769 191.065 37.9051 193.411 31.7196C194.096 29.9126 194.097 24.38 193.412 22.57C192.623 20.4846 189.975 17.9868 187.965 17.4304C185.208 16.6674 181.395 16.8646 179.135 17.8872ZM96.0573 27.2693L96.1927 37.1062L98.5677 37.2581L100.943 37.41V27.4212V17.4324H98.4323H95.9217L96.0573 27.2693ZM148.47 21.4319C150.685 22.6124 151.635 27.2598 150.389 30.821C149.058 34.6243 142.732 34.8419 141.04 31.1433C139.669 28.1459 140.668 22.7045 142.818 21.4568C143.96 20.7939 147.247 20.7795 148.47 21.4319ZM187.113 21.942C189.822 24.0637 189.98 29.924 187.398 32.496C185.442 34.4445 182.423 34.4241 180.441 32.4492C176.549 28.5718 178.802 20.9189 183.837 20.9189C185.068 20.9189 186.298 21.3029 187.113 21.942ZM0.942749 35.612V46.8185H11.9427H22.9427V35.612V24.4054H11.9427H0.942749V35.612ZM25.4427 35.612V46.8185H36.4427H47.4427V35.612V24.4054H36.4427H25.4427V35.612Z" fill="#333333"/>
</svg>
