<svg width="32" height="32" viewBox="0 0 32 32" fill="none" xmlns="http://www.w3.org/2000/svg">
<g clip-path="url(#clip0)">
<path d="M31.9387 6.09196C30.7587 6.61063 29.4987 6.96396 28.172 7.1253C29.524 6.31063 30.564 5.02663 31.056 3.49463C29.788 4.23463 28.3827 4.7733 26.8867 5.0733C25.692 3.79463 23.9893 2.99463 22.0987 2.99463C18.476 2.99463 15.5387 5.93196 15.5387 9.55063C15.5387 10.0706 15.5987 10.5706 15.708 11.0493C10.2547 10.792 5.42133 8.1733 2.18667 4.21463C1.61733 5.1773 1.29867 6.29596 1.29867 7.51463C1.29867 9.79463 2.45867 11.7986 4.216 12.976C3.14 12.9413 2.128 12.6453 1.24533 12.1546V12.236C1.24533 15.416 3.50267 18.068 6.50667 18.672C5.956 18.82 5.37467 18.9 4.77867 18.9C4.36 18.9 3.95867 18.86 3.55733 18.7853C4.39867 21.3893 6.81733 23.288 9.696 23.3413C7.456 25.1 4.61733 26.148 1.56 26.148C1.04 26.148 0.521333 26.1173 0 26.0586C2.91867 27.9173 6.35733 29.004 10.076 29.004C22.148 29.004 28.7413 19.0093 28.7413 10.356C28.7413 10.0773 28.7413 9.79596 28.7213 9.51596C30.0027 8.5973 31.1213 7.43596 32.0013 6.11863L31.9387 6.09196Z" fill="white"/>
</g>
<defs>
<clipPath id="clip0">
<rect width="32" height="32" fill="white"/>
</clipPath>
</defs>
</svg>
